<svg width="64" height="64" viewBox="0 0 64 64" fill="none" xmlns="http://www.w3.org/2000/svg">
<g clip-path="url(#clip0_2339_1907)">
<path d="M40.9625 51.4043C40.9625 56.3531 36.9513 60.3643 32.0025 60.3643C27.0537 60.3643 23.0425 56.3531 23.0425 51.4043H40.9625Z" fill="#C5E904"/>
<path d="M26.5986 9.04187C26.5986 6.05787 29.0178 3.63867 32.0018 3.63867C34.9858 3.63867 37.405 6.05787 37.405 9.04187H26.6002H26.5986Z" fill="#C5E904"/>
<path d="M9.76594 30.1184C9.76594 17.3488 20.5307 7.09436 33.4795 7.93276C45.2971 8.69756 54.2331 19.0384 54.2331 30.88V40.6064L58.0155 47.1568C59.1051 49.0448 57.7435 51.4048 55.5627 51.4048H8.43474C6.25554 51.4048 4.89234 49.0448 5.98194 47.1568L9.76434 40.6064L9.76594 30.1184Z" fill="#D1F801"/>
</g>
<defs>
<clipPath id="clip0_2339_1907">
<rect width="64" height="64" fill="white"/>
</clipPath>
</defs>
</svg>
