<svg width="64" height="64" viewBox="0 0 64 64" fill="none" xmlns="http://www.w3.org/2000/svg">
<g clip-path="url(#clip0_2339_1931)">
<path d="M52.947 7.67773H11.0558C8.48521 7.67773 6.40137 9.76158 6.40137 12.3321V52.6713C6.40137 55.2419 8.48521 57.3257 11.0558 57.3257H52.947C55.5175 57.3257 57.6014 55.2419 57.6014 52.6713V12.3321C57.6014 9.76158 55.5175 7.67773 52.947 7.67773Z" fill="#E5E9EE"/>
<path d="M11.0558 7.67773H52.947C55.5166 7.67773 57.6014 9.76414 57.6014 12.3321V19.8297H6.40137V12.3321C6.40137 9.76254 8.48777 7.67773 11.0558 7.67773Z" fill="#3082FF"/>
<path d="M16.4846 11.5556C15.4142 11.5556 14.5454 10.6884 14.5454 9.61643V5.73803C14.5454 4.66603 15.4126 3.79883 16.4846 3.79883C17.5566 3.79883 18.4238 4.66603 18.4238 5.73803V9.61643C18.4238 10.6884 17.5566 11.5556 16.4846 11.5556Z" fill="#D1F801"/>
<path d="M47.5159 11.5556C46.4455 11.5556 45.5767 10.6884 45.5767 9.61643V5.73803C45.5767 4.66603 46.4439 3.79883 47.5159 3.79883C48.5879 3.79883 49.4551 4.66603 49.4551 5.73803V9.61643C49.4551 10.6884 48.5879 11.5556 47.5159 11.5556Z" fill="#D1F801"/>
<path d="M17.5986 31.125C17.5986 30.4002 17.9714 29.725 18.5874 29.341L23.4018 26.3298C23.893 26.0226 24.461 25.8594 25.0402 25.8594C26.7458 25.8594 28.1298 27.2418 28.1298 28.949V46.7954C28.1298 48.2018 26.989 49.3426 25.5826 49.3426C24.1762 49.3426 23.0354 48.2018 23.0354 46.7954V31.5442L20.8114 32.917C19.4098 33.7826 17.6018 32.7746 17.6018 31.1266L17.5986 31.125Z" fill="#0366FD"/>
<path d="M30.7734 28.2336C30.7734 27.0928 31.6982 26.168 32.839 26.168H44.5398C45.5654 26.168 46.3974 27 46.3974 28.0256C46.3974 29.2192 46.1526 30.3984 45.6758 31.4928L38.5974 47.7776C38.1846 48.7264 37.2486 49.3408 36.2134 49.3408C34.3286 49.3408 33.071 47.4 33.839 45.68L40.7142 30.3008H32.8406C31.6998 30.3008 30.775 29.376 30.775 28.2352L30.7734 28.2336Z" fill="#0366FD"/>
</g>
<defs>
<clipPath id="clip0_2339_1931">
<rect width="64" height="64" fill="white"/>
</clipPath>
</defs>
</svg>
