<svg width="40" height="40" viewBox="0 0 40 40" fill="none" xmlns="http://www.w3.org/2000/svg">
<g clip-path="url(#clip0_70_161)">
<path d="M5 8.75H34.5C35.604 8.75 36.5 9.646 36.5 10.75V30.25C36.5 32.458 34.708 34.25 32.5 34.25H7.5C5.292 34.25 3.5 32.458 3.5 30.25V10.25C3.5 9.422 4.172 8.75 5 8.75Z" fill="#93BBF8"/>
<path d="M5.5 5.75H34.5C35.604 5.75 36.5 6.646 36.5 7.75V27.25C36.5 29.458 34.708 31.25 32.5 31.25H7.5C5.292 31.25 3.5 29.458 3.5 27.25V7.75C3.5 6.646 4.396 5.75 5.5 5.75Z" fill="#4582ED"/>
<path d="M32.042 9.625H7.958C7.56698 9.625 7.25 9.94198 7.25 10.333V13.167C7.25 13.558 7.56698 13.875 7.958 13.875H32.042C32.433 13.875 32.75 13.558 32.75 13.167V10.333C32.75 9.94198 32.433 9.625 32.042 9.625Z" fill="#313D4F"/>
</g>
<defs>
<clipPath id="clip0_70_161">
<rect width="40" height="40" fill="white"/>
</clipPath>
</defs>
</svg>
