<svg width="64" height="64" viewBox="0 0 64 64" fill="none" xmlns="http://www.w3.org/2000/svg">
<g clip-path="url(#clip0_2579_5372)">
<path d="M55.9999 59.1999C55.1807 59.1999 54.3631 58.8879 53.7375 58.2623L39.3679 43.8927C38.1183 42.6431 38.1183 40.6175 39.3679 39.3679C40.6175 38.1183 42.6431 38.1183 43.8927 39.3679L58.2623 53.7375C59.5119 54.9871 59.5119 57.0127 58.2623 58.2623C57.6367 58.8879 56.8191 59.1999 55.9999 59.1999Z" fill="#4E5968"/>
<path d="M47.4077 27.704C47.4077 16.84 38.5693 8 27.7037 8C22.2717 8 17.3453 10.2096 13.7773 13.7776L41.6285 41.6304C45.1965 38.0624 47.4077 33.136 47.4077 27.704Z" fill="#E5E9EE"/>
<path d="M41.6304 41.6306L13.7776 13.7778C10.2096 17.3458 8 22.2722 8 27.7042C8 38.5682 16.84 47.4082 27.704 47.4082C33.136 47.4082 38.0624 45.1986 41.6304 41.6306Z" fill="#F0F3F6"/>
<path d="M27.702 49.8065C15.5148 49.8065 5.59961 39.8913 5.59961 27.7041C5.59961 15.5169 15.5148 5.6001 27.702 5.6001C39.8892 5.6001 49.806 15.5153 49.806 27.7041C49.806 39.8929 39.8908 49.8065 27.702 49.8065ZM27.702 10.4001C18.1612 10.4001 10.3996 18.1633 10.3996 27.7041C10.3996 37.2449 18.1628 45.0065 27.702 45.0065C37.2412 45.0065 45.006 37.2433 45.006 27.7041C45.006 18.1649 37.2428 10.4001 27.702 10.4001Z" fill="#A3ADB7"/>
</g>
<defs>
<clipPath id="clip0_2579_5372">
<rect width="64" height="64" fill="white"/>
</clipPath>
</defs>
</svg>
