<svg width="64" height="64" viewBox="0 0 64 64" fill="none" xmlns="http://www.w3.org/2000/svg">
<g clip-path="url(#clip0_2579_5227)">
<path d="M46.8828 5.56921L42.0828 8.48121C41.6188 7.31321 40.4188 6.73721 39.2988 7.21721C38.0988 7.72921 37.4268 9.23321 37.8268 10.5772C37.9868 11.1532 38.3228 11.5852 38.7388 11.8892L36.5628 14.5452L36.5468 14.5612C36.5308 14.5452 36.5148 14.5292 36.5148 14.5292C36.2748 14.3212 36.0508 14.1132 35.8428 13.8892C35.8108 13.8572 35.7788 13.8092 35.7308 13.7612C35.4908 13.4892 35.2828 13.1852 35.0748 12.8812C35.0268 12.8012 34.9788 12.7052 34.9148 12.6252C34.7228 12.2732 34.5468 11.9052 34.4188 11.5372C34.3868 11.4412 34.3548 11.3612 34.3388 11.2652C34.2428 10.9612 34.1628 10.6572 34.1148 10.3372C34.0828 10.2252 34.0668 10.1132 34.0508 10.0012C34.0028 9.63321 33.9868 9.24921 34.0028 8.84921C34.0188 8.76921 34.0188 8.68921 34.0348 8.60921C34.0508 8.41721 34.0508 8.20921 34.0988 8.01721C34.1148 7.92121 34.1468 7.84121 34.1628 7.76121C34.2108 7.50521 34.2908 7.26521 34.3708 7.02521C34.4348 6.83321 34.4828 6.65721 34.5628 6.46521C34.6748 6.22521 34.8028 5.98521 34.9308 5.76121C35.0108 5.60121 35.0908 5.45721 35.1868 5.31321C35.3628 5.07321 35.5548 4.83321 35.7468 4.60921C35.8428 4.49721 35.9228 4.40121 36.0348 4.30521C36.2428 4.08121 36.4828 3.87321 36.7228 3.69721C36.8508 3.60121 36.9628 3.52121 37.0748 3.42521C37.1868 3.36121 37.2828 3.26521 37.3948 3.20121C37.5388 3.12121 37.6988 3.05721 37.8588 2.97721C38.0028 2.91321 38.1468 2.84921 38.3068 2.78521C38.5628 2.67321 38.8348 2.57721 39.1068 2.49721C39.2668 2.44921 39.4428 2.41721 39.6188 2.36921C39.8748 2.32121 40.1308 2.28921 40.4028 2.27321C40.5948 2.25721 40.8028 2.24121 40.9948 2.24121C41.2508 2.24121 41.5068 2.27321 41.7468 2.28921C41.8748 2.30521 41.9868 2.30521 42.1148 2.32121C42.1948 2.33721 42.2748 2.36921 42.3548 2.38521C42.6428 2.44921 42.9148 2.52921 43.1708 2.62521C43.3628 2.68921 43.5388 2.73721 43.7148 2.81721C43.9868 2.92921 44.2428 3.08921 44.4988 3.23321C44.6428 3.32921 44.8028 3.39321 44.9308 3.48921C45.2028 3.68121 45.4428 3.90521 45.6828 4.12921C45.7948 4.22521 45.9228 4.32121 46.0188 4.43321C46.2588 4.68921 46.4668 4.97721 46.6588 5.26521C46.7388 5.37721 46.8188 5.45721 46.8828 5.56921Z" fill="#333333"/>
<path d="M27.5822 35.0132L22.2238 41.2868L22.0718 41.4644L26.731 47.3156L26.7662 47.3604L31.5166 44.2884C32.5902 43.594 33.9374 43.4676 35.1214 43.9492L40.891 46.5012L44.8958 40.1092L38.779 35.4756L27.5822 35.0132Z" fill="#3E5AF4"/>
<path d="M36.0434 21.642C35.2114 19.9924 35.8754 17.9828 37.5234 17.1508C38.5394 16.6372 39.6914 16.6964 40.621 17.2004C40.445 17.0084 40.2626 16.8212 40.0466 16.6548C39.509 16.2452 38.8418 15.9316 38.0226 15.786C37.1698 15.634 36.4738 15.6036 35.8674 15.6548C34.5842 15.762 33.7458 16.2708 32.9826 17.0084C32.8594 17.1268 32.7378 17.2468 32.6162 17.3764C31.6002 18.4596 30.9538 19.8372 30.6322 21.2884L30.0178 24.058L27.5842 35.0148L38.781 35.4772C38.781 35.4772 39.3858 32.7268 40.0658 29.6132L36.0466 21.6436L36.0434 21.642Z" fill="#D1F801"/>
<path d="M22.2286 41.2877L21.9422 41.5549C21.6446 41.8333 21.1886 41.8413 20.8814 41.5757L17.6782 38.7949L12.4686 44.1565L12.3982 44.1725L15.9502 47.2573C17.5214 48.6221 19.4622 49.3005 21.4014 49.3005C23.3038 49.3005 25.1902 48.6189 26.7358 47.3165L22.0766 41.4653L22.2286 41.2877Z" fill="#FFCCA8"/>
<path d="M46.9183 5.61831C46.9183 5.60231 46.9023 5.58631 46.8863 5.57031L42.0863 8.48231C41.6223 7.31431 40.4223 6.73831 39.3023 7.21831C38.1023 7.73031 37.4303 9.23431 37.8303 10.5783C37.9903 11.1543 38.3263 11.5863 38.7423 11.8903L36.5663 14.5463L36.5503 14.5623C36.5343 14.5463 36.5183 14.5303 36.5183 14.5303L35.8623 15.6503C36.4703 15.6023 37.1743 15.6343 38.0223 15.7783C38.8383 15.9383 39.5103 16.2423 40.0543 16.6583L40.3743 16.0983C41.7663 16.2103 43.2223 15.9223 44.5183 15.1543C47.8143 13.1863 48.8863 8.91431 46.9183 5.61831ZM46.5023 10.1143C46.4063 10.7063 46.0543 11.1383 45.7183 11.0903C45.3823 11.0263 45.1903 10.4983 45.2863 9.90631C45.3823 9.33031 45.7343 8.88231 46.0703 8.94631C46.4063 9.01031 46.5983 9.52231 46.5023 10.1143Z" fill="#FFCCA8"/>
<path d="M41.4869 46.93C42.0389 47.3332 42.3733 47.9828 42.3765 48.6692L42.4165 54.314H49.9397L49.8997 48.6164C49.8789 45.5604 48.3925 42.658 45.9237 40.8564L44.9045 40.1108L40.8997 46.5028L41.4853 46.9316L41.4869 46.93Z" fill="#FFCCA8"/>
<path d="M32.9879 17.0107C32.8599 17.1227 32.7479 17.2507 32.6199 17.3787C31.6119 18.4667 30.9559 19.8427 30.6359 21.2827L30.0279 24.0507L26.6999 24.4187C26.2679 24.4667 25.8839 24.7067 25.6439 25.0587L24.0119 27.5547C24.3959 28.8347 24.1559 30.2907 23.2439 31.4107C21.7879 33.2027 19.1479 33.4587 17.3719 32.0027C15.5799 30.5467 15.3239 27.9227 16.7799 26.1307C16.9559 25.9227 17.1479 25.7307 17.3559 25.5547C17.4199 25.4267 17.4679 25.3147 17.5479 25.1867L20.0759 21.3787C21.4199 19.3467 23.5639 18.0347 25.9799 17.7627L32.9879 17.0107Z" fill="#FFCCA8"/>
<path d="M58.7005 26.7848C58.7005 28.6408 57.4845 30.1928 55.8205 30.7368L50.0445 33.8568C49.0365 34.4008 47.9325 34.6888 46.8285 34.6888C46.1565 34.6888 45.4845 34.5768 44.8125 34.3848C43.0685 33.8408 41.6285 32.6408 40.7805 31.0088L40.0765 29.6168L36.0445 21.6328C35.2125 19.9848 35.8845 17.9848 37.5325 17.1528C38.5405 16.6408 39.6925 16.6888 40.6365 17.2008C41.2125 17.5208 41.7085 18.0008 42.0285 18.6248L46.7325 27.9688C46.7325 27.9688 46.7485 27.9688 46.7805 27.9848C46.8285 28.0008 46.8605 27.9848 46.8765 27.9688L50.4285 26.0488C50.7645 24.0968 52.4765 22.6088 54.5245 22.6088C56.8285 22.6088 58.7005 24.4808 58.7005 26.7848Z" fill="#FFCCA8"/>
<path d="M42.3936 54.3135V60.7983C42.3936 61.1743 42.6976 61.4783 43.0736 61.4783H54.9024C55.2784 61.4783 55.5824 61.1743 55.5824 60.7983V59.9407C55.5824 58.6671 54.9328 57.4815 53.8592 56.7967L49.9712 54.3135H42.3936Z" fill="#4E5968"/>
<path d="M17.6735 38.7936L17.7439 38.72L13.0927 34.2C12.8239 33.9376 12.3919 33.944 12.1311 34.2144L3.88628 42.6976C3.62388 42.9664 3.63028 43.3984 3.90068 43.6592L4.51668 44.2576C5.43028 45.1456 6.73268 45.5056 7.97268 45.2128L12.3919 44.1712L12.4623 44.1552L17.6719 38.7936H17.6735Z" fill="#4E5968"/>
<path d="M45.7119 11.0885C46.0479 11.1461 46.4015 10.7125 46.5023 10.1205C46.6031 9.52845 46.4127 9.00365 46.0767 8.94605C45.7407 8.88845 45.3871 9.32205 45.2863 9.91405C45.1855 10.5061 45.3759 11.0325 45.7119 11.0885Z" fill="black"/>
</g>
<defs>
<clipPath id="clip0_2579_5227">
<rect width="64" height="64" fill="white"/>
</clipPath>
</defs>
</svg>
