<svg width="64" height="64" viewBox="0 0 64 64" fill="none" xmlns="http://www.w3.org/2000/svg">
<g clip-path="url(#clip0_2940_12540)">
<path d="M41.0425 25.5286C39.9609 25.5286 39.0841 24.6518 39.0841 23.5702V14.3366C39.0841 10.4294 35.9065 7.25016 31.9977 7.25016C28.0889 7.25016 24.9113 10.4294 24.9113 14.3366V23.5702C24.9113 24.6518 24.0345 25.5286 22.9529 25.5286C21.8713 25.5286 20.9945 24.6518 20.9945 23.5702V14.3366C20.9945 8.26936 25.9305 3.33496 31.9961 3.33496C38.0617 3.33496 42.9977 8.26936 42.9977 14.3366V23.5702C42.9977 24.6518 42.1209 25.5286 41.0393 25.5286H41.0425Z" fill="#4E5968"/>
<path d="M49.0127 14.3379H14.9903C13.7023 14.3379 12.6079 15.2771 12.4111 16.5491L7.29425 49.6835C6.56145 54.4275 10.2319 58.7091 15.0319 58.7091H48.9679C53.7679 58.7091 57.4383 54.4291 56.7055 49.6835L51.5887 16.5491C51.3919 15.2771 50.2975 14.3379 49.0095 14.3379H49.0127Z" fill="#D1F801"/>
</g>
<defs>
<clipPath id="clip0_2940_12540">
<rect width="64" height="64" fill="white"/>
</clipPath>
</defs>
</svg>
