<svg width="64" height="64" viewBox="0 0 64 64" fill="none" xmlns="http://www.w3.org/2000/svg">
<path d="M60.7835 36.5343L59.9707 34.7871H42.2939V49.7439H44.4827C44.4715 49.5887 44.4363 49.4415 44.4363 49.2831C44.4363 45.5055 47.4987 42.4431 51.2763 42.4431C55.0539 42.4431 58.1163 45.5055 58.1163 49.2831C58.1163 49.4415 58.0811 49.5887 58.0699 49.7439H58.8315C60.2203 49.7439 61.3467 48.6175 61.3467 47.2287V39.0783C61.3467 38.1999 61.1547 37.3327 60.7835 36.5343Z" fill="#CBCFD2"/>
<path d="M42.2915 19.8095V13.0367C42.2915 11.6479 41.1651 10.5215 39.7763 10.5215H5.1651C3.7763 10.5215 2.6499 11.6479 2.6499 13.0367V47.2271C2.6499 48.6159 3.7763 49.7423 5.1651 49.7423H7.8915C7.8803 49.5871 7.8451 49.4399 7.8451 49.2815C7.8451 45.5039 10.9075 42.4415 14.6851 42.4415C18.4627 42.4415 21.5251 45.5039 21.5251 49.2815C21.5251 49.4399 21.4899 49.5871 21.4787 49.7423H42.2899L42.2915 19.8095Z" fill="#D1F801"/>
<path d="M59.9677 34.7885L54.2301 22.4493C53.4813 20.8413 51.8685 19.8125 50.0957 19.8125H42.2925V34.7885H59.9693H59.9677Z" fill="#313D4C"/>
<path d="M14.6872 42.4473C10.9096 42.4473 7.84717 45.5097 7.84717 49.2873C7.84717 49.4457 7.88237 49.5929 7.89357 49.7481C8.13517 53.3065 11.068 56.1273 14.6872 56.1273C18.3064 56.1273 21.2392 53.3065 21.4808 49.7481C21.492 49.5929 21.5272 49.4457 21.5272 49.2873C21.5272 45.5097 18.4648 42.4473 14.6872 42.4473ZM14.6872 52.0233C13.1768 52.0233 11.9512 50.7977 11.9512 49.2873C11.9512 47.7769 13.1768 46.5513 14.6872 46.5513C16.1976 46.5513 17.4232 47.7769 17.4232 49.2873C17.4232 50.7977 16.1976 52.0233 14.6872 52.0233Z" fill="#313D4C"/>
<path d="M51.2746 42.4473C47.497 42.4473 44.4346 45.5097 44.4346 49.2873C44.4346 49.4457 44.4698 49.5929 44.481 49.7481C44.7226 53.3065 47.6554 56.1273 51.2746 56.1273C54.8938 56.1273 57.8266 53.3065 58.0682 49.7481C58.0794 49.5929 58.1146 49.4457 58.1146 49.2873C58.1146 45.5097 55.0522 42.4473 51.2746 42.4473ZM51.2746 52.0233C49.7642 52.0233 48.5386 50.7977 48.5386 49.2873C48.5386 47.7769 49.7642 46.5513 51.2746 46.5513C52.785 46.5513 54.0106 47.7769 54.0106 49.2873C54.0106 50.7977 52.785 52.0233 51.2746 52.0233Z" fill="#313D4C"/>
<path d="M17.4271 49.2848C17.4271 47.7744 16.2015 46.5488 14.6911 46.5488C13.1807 46.5488 11.9551 47.7744 11.9551 49.2848C11.9551 50.7952 13.1807 52.0208 14.6911 52.0208C16.2015 52.0208 17.4271 50.7952 17.4271 49.2848Z" fill="#6B7683"/>
<path d="M54.015 49.2848C54.015 47.7744 52.7894 46.5488 51.279 46.5488C49.7686 46.5488 48.543 47.7744 48.543 49.2848C48.543 50.7952 49.7686 52.0208 51.279 52.0208C52.7894 52.0208 54.015 50.7952 54.015 49.2848Z" fill="#6B7683"/>
</svg>
